# xmcd
#
# Track frame offsets: 
#        150
#        15803
#        28352
#        45351
#        60459
#        70409
#        83007
#        95772
#        113146
#        126330
#        137701
#        155654
#        168609
#        184172
#
# Disc length: 2601 seconds
#
# Revision: 0
# Processed by: cddbd v1.5.2PL0 Copyright (c) Steve Scherf et al.
# Submitted via: ExactAudioCopyFreeDBPlugin 1.0
#
DISCID=bc0a270e
DTITLE=Missy Werner - Turn This Heart Around
DYEAR=2014
DGENRE=Bluegrass
TTITLE0=I always do
TTITLE1=the heart you break
TTITLE2=main street
TTITLE3=wish I was
TTITLE4=rough edges
TTITLE5=you'll never care
TTITLE6=travelin' light
TTITLE7=cloudless blue
TTITLE8=a song that I love
TTITLE9=rocks In the river
TTITLE10=dead man walking
TTITLE11=snake in the grass
TTITLE12=come back to me
TTITLE13=I just got wise
EXTD=
EXTT0=
EXTT1=
EXTT2=
EXTT3=
EXTT4=
EXTT5=
EXTT6=
EXTT7=
EXTT8=
EXTT9=
EXTT10=
EXTT11=
EXTT12=
EXTT13=
PLAYORDER=
